<mxfile host="Electron" agent="Mozilla/5.0 (Windows NT 10.0; Win64; x64) AppleWebKit/537.36 (KHTML, like Gecko) draw.io/25.0.2 Chrome/128.0.6613.186 Electron/32.2.5 Safari/537.36" version="25.0.2" pages="5">
  <diagram name="main" id="DL5VvcSWo8KzBqn7yVq-">
    <mxGraphModel dx="956" dy="531" grid="1" gridSize="10" guides="1" tooltips="1" connect="1" arrows="1" fold="1" page="1" pageScale="1" pageWidth="827" pageHeight="1169" math="0" shadow="0">
      <root>
        <mxCell id="0" />
        <mxCell id="1" parent="0" />
        <mxCell id="1yTwyof56TBloCYhdk_t-4" value="" style="edgeStyle=orthogonalEdgeStyle;rounded=0;orthogonalLoop=1;jettySize=auto;html=1;" edge="1" parent="1" source="1yTwyof56TBloCYhdk_t-2" target="1yTwyof56TBloCYhdk_t-3">
          <mxGeometry relative="1" as="geometry" />
        </mxCell>
        <mxCell id="1yTwyof56TBloCYhdk_t-2" value="Начало" style="ellipse;whiteSpace=wrap;html=1;" vertex="1" parent="1">
          <mxGeometry x="340" y="80" width="120" height="40" as="geometry" />
        </mxCell>
        <mxCell id="1yTwyof56TBloCYhdk_t-8" value="" style="edgeStyle=orthogonalEdgeStyle;rounded=0;orthogonalLoop=1;jettySize=auto;html=1;" edge="1" parent="1" source="1yTwyof56TBloCYhdk_t-3" target="1yTwyof56TBloCYhdk_t-7">
          <mxGeometry relative="1" as="geometry" />
        </mxCell>
        <mxCell id="1yTwyof56TBloCYhdk_t-3" value="int main()" style="shape=process;whiteSpace=wrap;html=1;backgroundOutline=1;" vertex="1" parent="1">
          <mxGeometry x="340" y="160" width="120" height="40" as="geometry" />
        </mxCell>
        <mxCell id="1yTwyof56TBloCYhdk_t-5" value="" style="endArrow=none;dashed=1;html=1;rounded=0;" edge="1" parent="1" target="1yTwyof56TBloCYhdk_t-6">
          <mxGeometry width="50" height="50" relative="1" as="geometry">
            <mxPoint x="400" y="140" as="sourcePoint" />
            <mxPoint x="560" y="140" as="targetPoint" />
          </mxGeometry>
        </mxCell>
        <mxCell id="1yTwyof56TBloCYhdk_t-6" value="&lt;div&gt;#include &amp;lt;iostream&amp;gt;&lt;/div&gt;&lt;div&gt;#include &amp;lt;clocale&amp;gt;&lt;/div&gt;&lt;div&gt;using namespace std;&lt;/div&gt;&lt;div&gt;&lt;br&gt;&lt;/div&gt;&lt;div&gt;struct Node{...};&lt;/div&gt;&lt;div&gt;struct Stack{...};&lt;/div&gt;&lt;div&gt;&lt;br&gt;&lt;/div&gt;&lt;div&gt;&lt;div&gt;void del(Stack&amp;amp; stack, char key);&lt;/div&gt;&lt;div&gt;void insert(Stack&amp;amp; stack, int k, int num);&lt;/div&gt;&lt;/div&gt;" style="strokeWidth=2;html=1;shape=mxgraph.flowchart.annotation_1;align=left;pointerEvents=1;" vertex="1" parent="1">
          <mxGeometry x="560" y="70" width="50" height="140" as="geometry" />
        </mxCell>
        <mxCell id="1yTwyof56TBloCYhdk_t-10" value="" style="edgeStyle=orthogonalEdgeStyle;rounded=0;orthogonalLoop=1;jettySize=auto;html=1;" edge="1" parent="1" source="1yTwyof56TBloCYhdk_t-7" target="1yTwyof56TBloCYhdk_t-9">
          <mxGeometry relative="1" as="geometry" />
        </mxCell>
        <mxCell id="1yTwyof56TBloCYhdk_t-7" value="setlocale(LC_ALL, &quot;RU&quot;);" style="whiteSpace=wrap;html=1;" vertex="1" parent="1">
          <mxGeometry x="330" y="220" width="140" height="40" as="geometry" />
        </mxCell>
        <mxCell id="1yTwyof56TBloCYhdk_t-12" value="" style="edgeStyle=orthogonalEdgeStyle;rounded=0;orthogonalLoop=1;jettySize=auto;html=1;" edge="1" parent="1" source="1yTwyof56TBloCYhdk_t-9" target="1yTwyof56TBloCYhdk_t-11">
          <mxGeometry relative="1" as="geometry" />
        </mxCell>
        <mxCell id="1yTwyof56TBloCYhdk_t-9" value="Stack stack;" style="whiteSpace=wrap;html=1;" vertex="1" parent="1">
          <mxGeometry x="330" y="280" width="140" height="40" as="geometry" />
        </mxCell>
        <mxCell id="1yTwyof56TBloCYhdk_t-16" value="" style="edgeStyle=orthogonalEdgeStyle;rounded=0;orthogonalLoop=1;jettySize=auto;html=1;" edge="1" parent="1" source="1yTwyof56TBloCYhdk_t-11" target="1yTwyof56TBloCYhdk_t-15">
          <mxGeometry relative="1" as="geometry" />
        </mxCell>
        <mxCell id="1yTwyof56TBloCYhdk_t-11" value="int size;" style="whiteSpace=wrap;html=1;" vertex="1" parent="1">
          <mxGeometry x="330" y="340" width="140" height="40" as="geometry" />
        </mxCell>
        <mxCell id="1yTwyof56TBloCYhdk_t-18" value="" style="edgeStyle=orthogonalEdgeStyle;rounded=0;orthogonalLoop=1;jettySize=auto;html=1;" edge="1" parent="1" source="1yTwyof56TBloCYhdk_t-15" target="1yTwyof56TBloCYhdk_t-17">
          <mxGeometry relative="1" as="geometry" />
        </mxCell>
        <mxCell id="1yTwyof56TBloCYhdk_t-15" value="cout &lt;&lt; &quot;Введите количество элементов: &quot;;" style="shape=parallelogram;perimeter=parallelogramPerimeter;whiteSpace=wrap;html=1;fixedSize=1;" vertex="1" parent="1">
          <mxGeometry x="260" y="400" width="280" height="40" as="geometry" />
        </mxCell>
        <mxCell id="1yTwyof56TBloCYhdk_t-20" value="" style="edgeStyle=orthogonalEdgeStyle;rounded=0;orthogonalLoop=1;jettySize=auto;html=1;" edge="1" parent="1" source="1yTwyof56TBloCYhdk_t-17" target="1yTwyof56TBloCYhdk_t-19">
          <mxGeometry relative="1" as="geometry" />
        </mxCell>
        <mxCell id="1yTwyof56TBloCYhdk_t-17" value="cin &amp;gt;&amp;gt; size;" style="shape=parallelogram;perimeter=parallelogramPerimeter;whiteSpace=wrap;html=1;fixedSize=1;" vertex="1" parent="1">
          <mxGeometry x="340" y="460" width="120" height="40" as="geometry" />
        </mxCell>
        <mxCell id="1yTwyof56TBloCYhdk_t-22" value="" style="edgeStyle=orthogonalEdgeStyle;rounded=0;orthogonalLoop=1;jettySize=auto;html=1;" edge="1" parent="1" source="1yTwyof56TBloCYhdk_t-19" target="1yTwyof56TBloCYhdk_t-21">
          <mxGeometry relative="1" as="geometry" />
        </mxCell>
        <mxCell id="1yTwyof56TBloCYhdk_t-19" value="char value;" style="whiteSpace=wrap;html=1;" vertex="1" parent="1">
          <mxGeometry x="340" y="520" width="120" height="40" as="geometry" />
        </mxCell>
        <mxCell id="1yTwyof56TBloCYhdk_t-24" value="" style="edgeStyle=orthogonalEdgeStyle;rounded=0;orthogonalLoop=1;jettySize=auto;html=1;" edge="1" parent="1" source="1yTwyof56TBloCYhdk_t-21" target="1yTwyof56TBloCYhdk_t-23">
          <mxGeometry relative="1" as="geometry" />
        </mxCell>
        <mxCell id="1yTwyof56TBloCYhdk_t-33" style="edgeStyle=orthogonalEdgeStyle;rounded=0;orthogonalLoop=1;jettySize=auto;html=1;entryX=0.5;entryY=0;entryDx=0;entryDy=0;" edge="1" parent="1" source="1yTwyof56TBloCYhdk_t-21" target="1yTwyof56TBloCYhdk_t-35">
          <mxGeometry relative="1" as="geometry">
            <mxPoint x="400" y="880" as="targetPoint" />
            <Array as="points">
              <mxPoint x="520" y="600" />
              <mxPoint x="520" y="860" />
              <mxPoint x="400" y="860" />
            </Array>
          </mxGeometry>
        </mxCell>
        <mxCell id="1yTwyof56TBloCYhdk_t-21" value="for (int i = 1; i &amp;lt;= size; i++)" style="shape=hexagon;perimeter=hexagonPerimeter2;whiteSpace=wrap;html=1;fixedSize=1;" vertex="1" parent="1">
          <mxGeometry x="315" y="580" width="170" height="40" as="geometry" />
        </mxCell>
        <mxCell id="1yTwyof56TBloCYhdk_t-28" value="" style="edgeStyle=orthogonalEdgeStyle;rounded=0;orthogonalLoop=1;jettySize=auto;html=1;" edge="1" parent="1" source="1yTwyof56TBloCYhdk_t-23" target="1yTwyof56TBloCYhdk_t-27">
          <mxGeometry relative="1" as="geometry" />
        </mxCell>
        <mxCell id="1yTwyof56TBloCYhdk_t-23" value="cout &amp;lt;&amp;lt; &quot;Введите элемент: &quot;;" style="shape=parallelogram;perimeter=parallelogramPerimeter;whiteSpace=wrap;html=1;fixedSize=1;" vertex="1" parent="1">
          <mxGeometry x="300" y="660" width="200" height="40" as="geometry" />
        </mxCell>
        <mxCell id="1yTwyof56TBloCYhdk_t-25" value="{" style="text;html=1;align=center;verticalAlign=middle;resizable=0;points=[];autosize=1;strokeColor=none;fillColor=none;" vertex="1" parent="1">
          <mxGeometry x="370" y="620" width="30" height="30" as="geometry" />
        </mxCell>
        <mxCell id="1yTwyof56TBloCYhdk_t-26" value="1" style="text;html=1;align=center;verticalAlign=middle;resizable=0;points=[];autosize=1;strokeColor=none;fillColor=none;" vertex="1" parent="1">
          <mxGeometry x="399" y="630" width="30" height="30" as="geometry" />
        </mxCell>
        <mxCell id="1yTwyof56TBloCYhdk_t-30" value="" style="edgeStyle=orthogonalEdgeStyle;rounded=0;orthogonalLoop=1;jettySize=auto;html=1;" edge="1" parent="1" source="1yTwyof56TBloCYhdk_t-27" target="1yTwyof56TBloCYhdk_t-29">
          <mxGeometry relative="1" as="geometry" />
        </mxCell>
        <mxCell id="1yTwyof56TBloCYhdk_t-27" value="cin &amp;gt;&amp;gt; value;" style="shape=parallelogram;perimeter=parallelogramPerimeter;whiteSpace=wrap;html=1;fixedSize=1;" vertex="1" parent="1">
          <mxGeometry x="340" y="720" width="120" height="40" as="geometry" />
        </mxCell>
        <mxCell id="1yTwyof56TBloCYhdk_t-31" style="edgeStyle=orthogonalEdgeStyle;rounded=0;orthogonalLoop=1;jettySize=auto;html=1;entryX=0;entryY=0.5;entryDx=0;entryDy=0;" edge="1" parent="1" source="1yTwyof56TBloCYhdk_t-29" target="1yTwyof56TBloCYhdk_t-21">
          <mxGeometry relative="1" as="geometry">
            <Array as="points">
              <mxPoint x="400" y="840" />
              <mxPoint x="280" y="840" />
              <mxPoint x="280" y="600" />
            </Array>
          </mxGeometry>
        </mxCell>
        <mxCell id="1yTwyof56TBloCYhdk_t-29" value="stack.push(value);" style="whiteSpace=wrap;html=1;" vertex="1" parent="1">
          <mxGeometry x="340" y="780" width="120" height="40" as="geometry" />
        </mxCell>
        <mxCell id="1yTwyof56TBloCYhdk_t-32" value="}" style="text;html=1;align=center;verticalAlign=middle;resizable=0;points=[];autosize=1;strokeColor=none;fillColor=none;" vertex="1" parent="1">
          <mxGeometry x="399" y="820" width="30" height="30" as="geometry" />
        </mxCell>
        <mxCell id="1yTwyof56TBloCYhdk_t-34" value="0" style="text;html=1;align=center;verticalAlign=middle;resizable=0;points=[];autosize=1;strokeColor=none;fillColor=none;" vertex="1" parent="1">
          <mxGeometry x="495" y="570" width="30" height="30" as="geometry" />
        </mxCell>
        <mxCell id="1yTwyof56TBloCYhdk_t-41" style="edgeStyle=orthogonalEdgeStyle;rounded=0;orthogonalLoop=1;jettySize=auto;html=1;entryX=0.5;entryY=0;entryDx=0;entryDy=0;" edge="1" parent="1" source="1yTwyof56TBloCYhdk_t-35" target="1yTwyof56TBloCYhdk_t-37">
          <mxGeometry relative="1" as="geometry" />
        </mxCell>
        <mxCell id="1yTwyof56TBloCYhdk_t-35" value="stack.show();" style="rounded=0;whiteSpace=wrap;html=1;" vertex="1" parent="1">
          <mxGeometry x="340" y="880" width="120" height="40" as="geometry" />
        </mxCell>
        <mxCell id="1yTwyof56TBloCYhdk_t-36" value="" style="edgeStyle=orthogonalEdgeStyle;rounded=0;orthogonalLoop=1;jettySize=auto;html=1;" edge="1" parent="1" source="1yTwyof56TBloCYhdk_t-37" target="1yTwyof56TBloCYhdk_t-39">
          <mxGeometry relative="1" as="geometry" />
        </mxCell>
        <mxCell id="1yTwyof56TBloCYhdk_t-37" value="char key;" style="whiteSpace=wrap;html=1;" vertex="1" parent="1">
          <mxGeometry x="330" y="940" width="140" height="40" as="geometry" />
        </mxCell>
        <mxCell id="1yTwyof56TBloCYhdk_t-38" value="" style="edgeStyle=orthogonalEdgeStyle;rounded=0;orthogonalLoop=1;jettySize=auto;html=1;" edge="1" parent="1" source="1yTwyof56TBloCYhdk_t-39" target="1yTwyof56TBloCYhdk_t-40">
          <mxGeometry relative="1" as="geometry" />
        </mxCell>
        <mxCell id="1yTwyof56TBloCYhdk_t-39" value="cout &amp;lt;&amp;lt; &quot;Введите ключ для удаления: &quot;;" style="shape=parallelogram;perimeter=parallelogramPerimeter;whiteSpace=wrap;html=1;fixedSize=1;" vertex="1" parent="1">
          <mxGeometry x="260" y="1000" width="280" height="40" as="geometry" />
        </mxCell>
        <mxCell id="1yTwyof56TBloCYhdk_t-43" value="" style="edgeStyle=orthogonalEdgeStyle;rounded=0;orthogonalLoop=1;jettySize=auto;html=1;" edge="1" parent="1" source="1yTwyof56TBloCYhdk_t-40" target="1yTwyof56TBloCYhdk_t-42">
          <mxGeometry relative="1" as="geometry" />
        </mxCell>
        <mxCell id="1yTwyof56TBloCYhdk_t-40" value="cin &amp;gt;&amp;gt; key;" style="shape=parallelogram;perimeter=parallelogramPerimeter;whiteSpace=wrap;html=1;fixedSize=1;" vertex="1" parent="1">
          <mxGeometry x="340" y="1060" width="120" height="40" as="geometry" />
        </mxCell>
        <mxCell id="1yTwyof56TBloCYhdk_t-45" value="" style="edgeStyle=orthogonalEdgeStyle;rounded=0;orthogonalLoop=1;jettySize=auto;html=1;" edge="1" parent="1" source="1yTwyof56TBloCYhdk_t-42" target="1yTwyof56TBloCYhdk_t-44">
          <mxGeometry relative="1" as="geometry" />
        </mxCell>
        <mxCell id="1yTwyof56TBloCYhdk_t-42" value="del(stack, key);" style="whiteSpace=wrap;html=1;" vertex="1" parent="1">
          <mxGeometry x="340" y="1120" width="120" height="40" as="geometry" />
        </mxCell>
        <mxCell id="1yTwyof56TBloCYhdk_t-49" value="" style="edgeStyle=orthogonalEdgeStyle;rounded=0;orthogonalLoop=1;jettySize=auto;html=1;" edge="1" parent="1" source="1yTwyof56TBloCYhdk_t-44" target="1yTwyof56TBloCYhdk_t-48">
          <mxGeometry relative="1" as="geometry" />
        </mxCell>
        <mxCell id="1yTwyof56TBloCYhdk_t-44" value="cout &amp;lt;&amp;lt; &quot;Стек после удаления по ключу:\n&quot;;" style="shape=parallelogram;perimeter=parallelogramPerimeter;whiteSpace=wrap;html=1;fixedSize=1;" vertex="1" parent="1">
          <mxGeometry x="260" y="1180" width="280" height="40" as="geometry" />
        </mxCell>
        <mxCell id="1yTwyof56TBloCYhdk_t-55" style="edgeStyle=orthogonalEdgeStyle;rounded=0;orthogonalLoop=1;jettySize=auto;html=1;entryX=0.5;entryY=0;entryDx=0;entryDy=0;" edge="1" parent="1" source="1yTwyof56TBloCYhdk_t-48" target="1yTwyof56TBloCYhdk_t-51">
          <mxGeometry relative="1" as="geometry" />
        </mxCell>
        <mxCell id="1yTwyof56TBloCYhdk_t-48" value="stack.show();" style="whiteSpace=wrap;html=1;" vertex="1" parent="1">
          <mxGeometry x="340" y="1240" width="120" height="40" as="geometry" />
        </mxCell>
        <mxCell id="1yTwyof56TBloCYhdk_t-50" value="" style="edgeStyle=orthogonalEdgeStyle;rounded=0;orthogonalLoop=1;jettySize=auto;html=1;" edge="1" parent="1" source="1yTwyof56TBloCYhdk_t-51" target="1yTwyof56TBloCYhdk_t-53">
          <mxGeometry relative="1" as="geometry" />
        </mxCell>
        <mxCell id="1yTwyof56TBloCYhdk_t-51" value="int k, num;" style="whiteSpace=wrap;html=1;" vertex="1" parent="1">
          <mxGeometry x="330" y="1300" width="140" height="40" as="geometry" />
        </mxCell>
        <mxCell id="1yTwyof56TBloCYhdk_t-52" value="" style="edgeStyle=orthogonalEdgeStyle;rounded=0;orthogonalLoop=1;jettySize=auto;html=1;" edge="1" parent="1" source="1yTwyof56TBloCYhdk_t-53" target="1yTwyof56TBloCYhdk_t-54">
          <mxGeometry relative="1" as="geometry" />
        </mxCell>
        <mxCell id="1yTwyof56TBloCYhdk_t-53" value="cout &amp;lt;&amp;lt; &quot;Введите номер, перед которым нужно добавить элементы: &quot;;" style="shape=parallelogram;perimeter=parallelogramPerimeter;whiteSpace=wrap;html=1;fixedSize=1;" vertex="1" parent="1">
          <mxGeometry x="225" y="1360" width="350" height="40" as="geometry" />
        </mxCell>
        <mxCell id="1yTwyof56TBloCYhdk_t-59" style="edgeStyle=orthogonalEdgeStyle;rounded=0;orthogonalLoop=1;jettySize=auto;html=1;entryX=0.5;entryY=0;entryDx=0;entryDy=0;" edge="1" parent="1" source="1yTwyof56TBloCYhdk_t-54" target="1yTwyof56TBloCYhdk_t-57">
          <mxGeometry relative="1" as="geometry" />
        </mxCell>
        <mxCell id="1yTwyof56TBloCYhdk_t-54" value="cin &amp;gt;&amp;gt; num;" style="shape=parallelogram;perimeter=parallelogramPerimeter;whiteSpace=wrap;html=1;fixedSize=1;" vertex="1" parent="1">
          <mxGeometry x="340" y="1420" width="120" height="40" as="geometry" />
        </mxCell>
        <mxCell id="1yTwyof56TBloCYhdk_t-56" value="" style="edgeStyle=orthogonalEdgeStyle;rounded=0;orthogonalLoop=1;jettySize=auto;html=1;" edge="1" parent="1" source="1yTwyof56TBloCYhdk_t-57" target="1yTwyof56TBloCYhdk_t-58">
          <mxGeometry relative="1" as="geometry" />
        </mxCell>
        <mxCell id="1yTwyof56TBloCYhdk_t-57" value="cout &amp;lt;&amp;lt; &quot;Введите количество добавляемых элементов: &quot;;" style="shape=parallelogram;perimeter=parallelogramPerimeter;whiteSpace=wrap;html=1;fixedSize=1;" vertex="1" parent="1">
          <mxGeometry x="225" y="1480" width="350" height="40" as="geometry" />
        </mxCell>
        <mxCell id="1yTwyof56TBloCYhdk_t-65" style="edgeStyle=orthogonalEdgeStyle;rounded=0;orthogonalLoop=1;jettySize=auto;html=1;entryX=0.5;entryY=0;entryDx=0;entryDy=0;" edge="1" parent="1" source="1yTwyof56TBloCYhdk_t-58" target="1yTwyof56TBloCYhdk_t-61">
          <mxGeometry relative="1" as="geometry" />
        </mxCell>
        <mxCell id="1yTwyof56TBloCYhdk_t-58" value="cin &amp;gt;&amp;gt; k;" style="shape=parallelogram;perimeter=parallelogramPerimeter;whiteSpace=wrap;html=1;fixedSize=1;" vertex="1" parent="1">
          <mxGeometry x="340" y="1540" width="120" height="40" as="geometry" />
        </mxCell>
        <mxCell id="1yTwyof56TBloCYhdk_t-60" value="" style="edgeStyle=orthogonalEdgeStyle;rounded=0;orthogonalLoop=1;jettySize=auto;html=1;" edge="1" parent="1" source="1yTwyof56TBloCYhdk_t-61" target="1yTwyof56TBloCYhdk_t-63">
          <mxGeometry relative="1" as="geometry" />
        </mxCell>
        <mxCell id="1yTwyof56TBloCYhdk_t-61" value="insert(stack, k, num);" style="whiteSpace=wrap;html=1;" vertex="1" parent="1">
          <mxGeometry x="340" y="1600" width="120" height="40" as="geometry" />
        </mxCell>
        <mxCell id="1yTwyof56TBloCYhdk_t-62" value="" style="edgeStyle=orthogonalEdgeStyle;rounded=0;orthogonalLoop=1;jettySize=auto;html=1;" edge="1" parent="1" source="1yTwyof56TBloCYhdk_t-63" target="1yTwyof56TBloCYhdk_t-64">
          <mxGeometry relative="1" as="geometry" />
        </mxCell>
        <mxCell id="1yTwyof56TBloCYhdk_t-63" value="cout &amp;lt;&amp;lt; &quot;Стек после добавления элементов:\n&quot;;" style="shape=parallelogram;perimeter=parallelogramPerimeter;whiteSpace=wrap;html=1;fixedSize=1;" vertex="1" parent="1">
          <mxGeometry x="245" y="1660" width="310" height="40" as="geometry" />
        </mxCell>
        <mxCell id="1yTwyof56TBloCYhdk_t-66" style="edgeStyle=orthogonalEdgeStyle;rounded=0;orthogonalLoop=1;jettySize=auto;html=1;" edge="1" parent="1" source="1yTwyof56TBloCYhdk_t-64">
          <mxGeometry relative="1" as="geometry">
            <mxPoint x="400" y="1780" as="targetPoint" />
          </mxGeometry>
        </mxCell>
        <mxCell id="1yTwyof56TBloCYhdk_t-64" value="stack.show();" style="whiteSpace=wrap;html=1;" vertex="1" parent="1">
          <mxGeometry x="340" y="1720" width="120" height="40" as="geometry" />
        </mxCell>
        <mxCell id="1yTwyof56TBloCYhdk_t-67" value="return 0;" style="ellipse;whiteSpace=wrap;html=1;" vertex="1" parent="1">
          <mxGeometry x="340" y="1780" width="120" height="40" as="geometry" />
        </mxCell>
        <mxCell id="1yTwyof56TBloCYhdk_t-68" value="}" style="text;html=1;align=center;verticalAlign=middle;resizable=0;points=[];autosize=1;strokeColor=none;fillColor=none;" vertex="1" parent="1">
          <mxGeometry x="399" y="1820" width="30" height="30" as="geometry" />
        </mxCell>
      </root>
    </mxGraphModel>
  </diagram>
  <diagram id="3PD3dhwQVSxm0iUpyZxR" name="del">
    <mxGraphModel dx="1290" dy="717" grid="1" gridSize="10" guides="1" tooltips="1" connect="1" arrows="1" fold="1" page="1" pageScale="1" pageWidth="827" pageHeight="1169" math="0" shadow="0">
      <root>
        <mxCell id="0" />
        <mxCell id="1" parent="0" />
        <mxCell id="AKCybVx1dszqre9oV6ZC-4" value="" style="edgeStyle=orthogonalEdgeStyle;rounded=0;orthogonalLoop=1;jettySize=auto;html=1;" edge="1" parent="1" source="AKCybVx1dszqre9oV6ZC-2" target="AKCybVx1dszqre9oV6ZC-3">
          <mxGeometry relative="1" as="geometry" />
        </mxCell>
        <mxCell id="AKCybVx1dszqre9oV6ZC-2" value="void del(Stack&amp;amp; stack, char key)" style="shape=process;whiteSpace=wrap;html=1;backgroundOutline=1;size=0.043478260869565216;" vertex="1" parent="1">
          <mxGeometry x="290" y="80" width="220" height="40" as="geometry" />
        </mxCell>
        <mxCell id="AKCybVx1dszqre9oV6ZC-7" value="" style="edgeStyle=orthogonalEdgeStyle;rounded=0;orthogonalLoop=1;jettySize=auto;html=1;" edge="1" parent="1" source="AKCybVx1dszqre9oV6ZC-3" target="AKCybVx1dszqre9oV6ZC-6">
          <mxGeometry relative="1" as="geometry" />
        </mxCell>
        <mxCell id="AKCybVx1dszqre9oV6ZC-3" value="Stack new_stack;" style="whiteSpace=wrap;html=1;" vertex="1" parent="1">
          <mxGeometry x="340" y="160" width="120" height="40" as="geometry" />
        </mxCell>
        <mxCell id="AKCybVx1dszqre9oV6ZC-5" value="{" style="text;html=1;align=center;verticalAlign=middle;resizable=0;points=[];autosize=1;strokeColor=none;fillColor=none;" vertex="1" parent="1">
          <mxGeometry x="370" y="120" width="30" height="30" as="geometry" />
        </mxCell>
        <mxCell id="AKCybVx1dszqre9oV6ZC-9" value="" style="edgeStyle=orthogonalEdgeStyle;rounded=0;orthogonalLoop=1;jettySize=auto;html=1;" edge="1" parent="1" source="AKCybVx1dszqre9oV6ZC-6" target="AKCybVx1dszqre9oV6ZC-8">
          <mxGeometry relative="1" as="geometry" />
        </mxCell>
        <mxCell id="AKCybVx1dszqre9oV6ZC-6" value="int size = stack.size;" style="whiteSpace=wrap;html=1;" vertex="1" parent="1">
          <mxGeometry x="340" y="220" width="120" height="40" as="geometry" />
        </mxCell>
        <mxCell id="AKCybVx1dszqre9oV6ZC-11" value="" style="edgeStyle=orthogonalEdgeStyle;rounded=0;orthogonalLoop=1;jettySize=auto;html=1;" edge="1" parent="1" source="AKCybVx1dszqre9oV6ZC-8" target="AKCybVx1dszqre9oV6ZC-10">
          <mxGeometry relative="1" as="geometry" />
        </mxCell>
        <mxCell id="AKCybVx1dszqre9oV6ZC-24" style="edgeStyle=orthogonalEdgeStyle;rounded=0;orthogonalLoop=1;jettySize=auto;html=1;entryX=0.5;entryY=0;entryDx=0;entryDy=0;" edge="1" parent="1" source="AKCybVx1dszqre9oV6ZC-8" target="AKCybVx1dszqre9oV6ZC-26">
          <mxGeometry relative="1" as="geometry">
            <mxPoint x="400" y="640" as="targetPoint" />
            <Array as="points">
              <mxPoint x="580" y="300" />
              <mxPoint x="580" y="620" />
              <mxPoint x="400" y="620" />
            </Array>
          </mxGeometry>
        </mxCell>
        <mxCell id="AKCybVx1dszqre9oV6ZC-8" value="for (int i = 0; i &amp;lt; size; i++)" style="shape=hexagon;perimeter=hexagonPerimeter2;whiteSpace=wrap;html=1;fixedSize=1;" vertex="1" parent="1">
          <mxGeometry x="315" y="280" width="170" height="40" as="geometry" />
        </mxCell>
        <mxCell id="AKCybVx1dszqre9oV6ZC-15" value="" style="edgeStyle=orthogonalEdgeStyle;rounded=0;orthogonalLoop=1;jettySize=auto;html=1;exitX=0;exitY=0.5;exitDx=0;exitDy=0;" edge="1" parent="1" source="AKCybVx1dszqre9oV6ZC-10" target="AKCybVx1dszqre9oV6ZC-14">
          <mxGeometry relative="1" as="geometry" />
        </mxCell>
        <mxCell id="AKCybVx1dszqre9oV6ZC-18" style="edgeStyle=orthogonalEdgeStyle;rounded=0;orthogonalLoop=1;jettySize=auto;html=1;" edge="1" parent="1" source="AKCybVx1dszqre9oV6ZC-10">
          <mxGeometry relative="1" as="geometry">
            <mxPoint x="400" y="520" as="targetPoint" />
            <Array as="points">
              <mxPoint x="540" y="380" />
              <mxPoint x="540" y="520" />
            </Array>
          </mxGeometry>
        </mxCell>
        <mxCell id="AKCybVx1dszqre9oV6ZC-10" value="if (stack.head-&amp;gt;data != key)" style="rhombus;whiteSpace=wrap;html=1;" vertex="1" parent="1">
          <mxGeometry x="295" y="360" width="210" height="40" as="geometry" />
        </mxCell>
        <mxCell id="AKCybVx1dszqre9oV6ZC-12" value="1" style="text;html=1;align=center;verticalAlign=middle;resizable=0;points=[];autosize=1;strokeColor=none;fillColor=none;" vertex="1" parent="1">
          <mxGeometry x="400" y="330" width="30" height="30" as="geometry" />
        </mxCell>
        <mxCell id="AKCybVx1dszqre9oV6ZC-13" value="{" style="text;html=1;align=center;verticalAlign=middle;resizable=0;points=[];autosize=1;strokeColor=none;fillColor=none;" vertex="1" parent="1">
          <mxGeometry x="370" y="320" width="30" height="30" as="geometry" />
        </mxCell>
        <mxCell id="AKCybVx1dszqre9oV6ZC-17" style="edgeStyle=orthogonalEdgeStyle;rounded=0;orthogonalLoop=1;jettySize=auto;html=1;exitX=0.5;exitY=1;exitDx=0;exitDy=0;" edge="1" parent="1" source="AKCybVx1dszqre9oV6ZC-14">
          <mxGeometry relative="1" as="geometry">
            <mxPoint x="400" y="520" as="targetPoint" />
            <Array as="points">
              <mxPoint x="240" y="520" />
            </Array>
          </mxGeometry>
        </mxCell>
        <mxCell id="AKCybVx1dszqre9oV6ZC-14" value="new_stack.push(stack.head-&amp;gt;data);" style="whiteSpace=wrap;html=1;" vertex="1" parent="1">
          <mxGeometry x="140" y="440" width="200" height="40" as="geometry" />
        </mxCell>
        <mxCell id="AKCybVx1dszqre9oV6ZC-16" value="1" style="text;html=1;align=center;verticalAlign=middle;resizable=0;points=[];autosize=1;strokeColor=none;fillColor=none;" vertex="1" parent="1">
          <mxGeometry x="240" y="350" width="30" height="30" as="geometry" />
        </mxCell>
        <mxCell id="AKCybVx1dszqre9oV6ZC-19" value="0" style="text;html=1;align=center;verticalAlign=middle;resizable=0;points=[];autosize=1;strokeColor=none;fillColor=none;" vertex="1" parent="1">
          <mxGeometry x="510" y="350" width="30" height="30" as="geometry" />
        </mxCell>
        <mxCell id="AKCybVx1dszqre9oV6ZC-20" value="" style="endArrow=classic;html=1;rounded=0;" edge="1" parent="1" target="AKCybVx1dszqre9oV6ZC-21">
          <mxGeometry width="50" height="50" relative="1" as="geometry">
            <mxPoint x="400" y="520" as="sourcePoint" />
            <mxPoint x="400" y="540" as="targetPoint" />
          </mxGeometry>
        </mxCell>
        <mxCell id="AKCybVx1dszqre9oV6ZC-22" style="edgeStyle=orthogonalEdgeStyle;rounded=0;orthogonalLoop=1;jettySize=auto;html=1;entryX=0;entryY=0.5;entryDx=0;entryDy=0;" edge="1" parent="1" source="AKCybVx1dszqre9oV6ZC-21" target="AKCybVx1dszqre9oV6ZC-8">
          <mxGeometry relative="1" as="geometry">
            <Array as="points">
              <mxPoint x="400" y="600" />
              <mxPoint x="120" y="600" />
              <mxPoint x="120" y="300" />
            </Array>
          </mxGeometry>
        </mxCell>
        <mxCell id="AKCybVx1dszqre9oV6ZC-21" value="stack.pop();" style="rounded=0;whiteSpace=wrap;html=1;" vertex="1" parent="1">
          <mxGeometry x="340" y="540" width="120" height="40" as="geometry" />
        </mxCell>
        <mxCell id="AKCybVx1dszqre9oV6ZC-23" value="}" style="text;html=1;align=center;verticalAlign=middle;resizable=0;points=[];autosize=1;strokeColor=none;fillColor=none;" vertex="1" parent="1">
          <mxGeometry x="399" y="580" width="30" height="30" as="geometry" />
        </mxCell>
        <mxCell id="AKCybVx1dszqre9oV6ZC-25" value="0" style="text;html=1;align=center;verticalAlign=middle;resizable=0;points=[];autosize=1;strokeColor=none;fillColor=none;" vertex="1" parent="1">
          <mxGeometry x="555" y="270" width="30" height="30" as="geometry" />
        </mxCell>
        <mxCell id="AKCybVx1dszqre9oV6ZC-28" value="" style="edgeStyle=orthogonalEdgeStyle;rounded=0;orthogonalLoop=1;jettySize=auto;html=1;" edge="1" parent="1" source="AKCybVx1dszqre9oV6ZC-26" target="AKCybVx1dszqre9oV6ZC-27">
          <mxGeometry relative="1" as="geometry" />
        </mxCell>
        <mxCell id="AKCybVx1dszqre9oV6ZC-26" value="size = new_stack.size;" style="rounded=0;whiteSpace=wrap;html=1;" vertex="1" parent="1">
          <mxGeometry x="330" y="640" width="140" height="40" as="geometry" />
        </mxCell>
        <mxCell id="AKCybVx1dszqre9oV6ZC-30" value="" style="edgeStyle=orthogonalEdgeStyle;rounded=0;orthogonalLoop=1;jettySize=auto;html=1;" edge="1" parent="1" source="AKCybVx1dszqre9oV6ZC-27" target="AKCybVx1dszqre9oV6ZC-29">
          <mxGeometry relative="1" as="geometry" />
        </mxCell>
        <mxCell id="AKCybVx1dszqre9oV6ZC-37" style="edgeStyle=orthogonalEdgeStyle;rounded=0;orthogonalLoop=1;jettySize=auto;html=1;" edge="1" parent="1" source="AKCybVx1dszqre9oV6ZC-27" target="AKCybVx1dszqre9oV6ZC-38">
          <mxGeometry relative="1" as="geometry">
            <mxPoint x="600" y="780" as="targetPoint" />
          </mxGeometry>
        </mxCell>
        <mxCell id="AKCybVx1dszqre9oV6ZC-27" value="for (int i = 0; i &amp;lt; size; i++)" style="shape=hexagon;perimeter=hexagonPerimeter2;whiteSpace=wrap;html=1;fixedSize=1;rounded=0;" vertex="1" parent="1">
          <mxGeometry x="315" y="700" width="170" height="40" as="geometry" />
        </mxCell>
        <mxCell id="AKCybVx1dszqre9oV6ZC-32" value="" style="edgeStyle=orthogonalEdgeStyle;rounded=0;orthogonalLoop=1;jettySize=auto;html=1;" edge="1" parent="1" source="AKCybVx1dszqre9oV6ZC-29" target="AKCybVx1dszqre9oV6ZC-31">
          <mxGeometry relative="1" as="geometry" />
        </mxCell>
        <mxCell id="AKCybVx1dszqre9oV6ZC-29" value="stack.push(new_stack.head-&amp;gt;data);" style="whiteSpace=wrap;html=1;rounded=0;" vertex="1" parent="1">
          <mxGeometry x="300" y="780" width="200" height="40" as="geometry" />
        </mxCell>
        <mxCell id="AKCybVx1dszqre9oV6ZC-35" style="edgeStyle=orthogonalEdgeStyle;rounded=0;orthogonalLoop=1;jettySize=auto;html=1;entryX=0;entryY=0.5;entryDx=0;entryDy=0;" edge="1" parent="1" source="AKCybVx1dszqre9oV6ZC-31" target="AKCybVx1dszqre9oV6ZC-27">
          <mxGeometry relative="1" as="geometry">
            <Array as="points">
              <mxPoint x="400" y="900" />
              <mxPoint x="280" y="900" />
              <mxPoint x="280" y="720" />
            </Array>
          </mxGeometry>
        </mxCell>
        <mxCell id="AKCybVx1dszqre9oV6ZC-31" value="new_stack.pop();" style="whiteSpace=wrap;html=1;rounded=0;" vertex="1" parent="1">
          <mxGeometry x="330" y="840" width="140" height="40" as="geometry" />
        </mxCell>
        <mxCell id="AKCybVx1dszqre9oV6ZC-33" value="1" style="text;html=1;align=center;verticalAlign=middle;resizable=0;points=[];autosize=1;strokeColor=none;fillColor=none;" vertex="1" parent="1">
          <mxGeometry x="400" y="750" width="30" height="30" as="geometry" />
        </mxCell>
        <mxCell id="AKCybVx1dszqre9oV6ZC-34" value="{" style="text;html=1;align=center;verticalAlign=middle;resizable=0;points=[];autosize=1;strokeColor=none;fillColor=none;" vertex="1" parent="1">
          <mxGeometry x="370" y="740" width="30" height="30" as="geometry" />
        </mxCell>
        <mxCell id="AKCybVx1dszqre9oV6ZC-36" value="}" style="text;html=1;align=center;verticalAlign=middle;resizable=0;points=[];autosize=1;strokeColor=none;fillColor=none;" vertex="1" parent="1">
          <mxGeometry x="400" y="880" width="30" height="30" as="geometry" />
        </mxCell>
        <mxCell id="AKCybVx1dszqre9oV6ZC-38" value="return;" style="ellipse;whiteSpace=wrap;html=1;" vertex="1" parent="1">
          <mxGeometry x="560" y="760" width="120" height="40" as="geometry" />
        </mxCell>
        <mxCell id="AKCybVx1dszqre9oV6ZC-39" value="}" style="text;html=1;align=center;verticalAlign=middle;resizable=0;points=[];autosize=1;strokeColor=none;fillColor=none;" vertex="1" parent="1">
          <mxGeometry x="620" y="800" width="30" height="30" as="geometry" />
        </mxCell>
        <mxCell id="u5lI5VALue0Jt7a8DjoM-1" value="0" style="text;html=1;align=center;verticalAlign=middle;resizable=0;points=[];autosize=1;strokeColor=none;fillColor=none;" vertex="1" parent="1">
          <mxGeometry x="590" y="690" width="30" height="30" as="geometry" />
        </mxCell>
      </root>
    </mxGraphModel>
  </diagram>
  <diagram id="8kferskU-yaHzj1e9vXY" name="insert">
    <mxGraphModel dx="832" dy="463" grid="1" gridSize="10" guides="1" tooltips="1" connect="1" arrows="1" fold="1" page="1" pageScale="1" pageWidth="827" pageHeight="1169" math="0" shadow="0">
      <root>
        <mxCell id="0" />
        <mxCell id="1" parent="0" />
        <mxCell id="Np2OasxBBOQPib7tvNMP-4" value="" style="edgeStyle=orthogonalEdgeStyle;rounded=0;orthogonalLoop=1;jettySize=auto;html=1;" edge="1" parent="1" source="Np2OasxBBOQPib7tvNMP-2" target="Np2OasxBBOQPib7tvNMP-3">
          <mxGeometry relative="1" as="geometry" />
        </mxCell>
        <mxCell id="Np2OasxBBOQPib7tvNMP-2" value="void insert(Stack&amp;amp; stack, int k, int num)" style="shape=process;whiteSpace=wrap;html=1;backgroundOutline=1;size=0.03571428571428571;" vertex="1" parent="1">
          <mxGeometry x="280" y="40" width="240" height="40" as="geometry" />
        </mxCell>
        <mxCell id="sELiH9b5jh_TGQpdXkiS-12" style="edgeStyle=orthogonalEdgeStyle;rounded=0;orthogonalLoop=1;jettySize=auto;html=1;entryX=0.5;entryY=0;entryDx=0;entryDy=0;" edge="1" parent="1" source="Np2OasxBBOQPib7tvNMP-3" target="sELiH9b5jh_TGQpdXkiS-3">
          <mxGeometry relative="1" as="geometry" />
        </mxCell>
        <mxCell id="Np2OasxBBOQPib7tvNMP-3" value="Stack new_stack;" style="whiteSpace=wrap;html=1;" vertex="1" parent="1">
          <mxGeometry x="340" y="120" width="120" height="40" as="geometry" />
        </mxCell>
        <mxCell id="sELiH9b5jh_TGQpdXkiS-1" value="" style="edgeStyle=orthogonalEdgeStyle;rounded=0;orthogonalLoop=1;jettySize=auto;html=1;" edge="1" parent="1" source="sELiH9b5jh_TGQpdXkiS-3" target="sELiH9b5jh_TGQpdXkiS-5">
          <mxGeometry relative="1" as="geometry" />
        </mxCell>
        <mxCell id="sELiH9b5jh_TGQpdXkiS-2" style="edgeStyle=orthogonalEdgeStyle;rounded=0;orthogonalLoop=1;jettySize=auto;html=1;entryX=0.5;entryY=0;entryDx=0;entryDy=0;" edge="1" parent="1" source="sELiH9b5jh_TGQpdXkiS-3" target="DLsr-dDzAjs14zjQ3pSc-2">
          <mxGeometry relative="1" as="geometry">
            <mxPoint x="400" y="420" as="targetPoint" />
            <Array as="points">
              <mxPoint x="530" y="200" />
              <mxPoint x="530" y="400" />
              <mxPoint x="400" y="400" />
              <mxPoint x="400" y="420" />
            </Array>
          </mxGeometry>
        </mxCell>
        <mxCell id="sELiH9b5jh_TGQpdXkiS-3" value="for (int i = 1; i &amp;lt; num; i++)" style="shape=hexagon;perimeter=hexagonPerimeter2;whiteSpace=wrap;html=1;fixedSize=1;rounded=0;" vertex="1" parent="1">
          <mxGeometry x="315" y="180" width="170" height="40" as="geometry" />
        </mxCell>
        <mxCell id="sELiH9b5jh_TGQpdXkiS-4" value="" style="edgeStyle=orthogonalEdgeStyle;rounded=0;orthogonalLoop=1;jettySize=auto;html=1;" edge="1" parent="1" source="sELiH9b5jh_TGQpdXkiS-5" target="sELiH9b5jh_TGQpdXkiS-7">
          <mxGeometry relative="1" as="geometry" />
        </mxCell>
        <mxCell id="sELiH9b5jh_TGQpdXkiS-5" value="new_stack.push(stack.head-&amp;gt;data);" style="whiteSpace=wrap;html=1;rounded=0;" vertex="1" parent="1">
          <mxGeometry x="300" y="260" width="200" height="40" as="geometry" />
        </mxCell>
        <mxCell id="sELiH9b5jh_TGQpdXkiS-6" style="edgeStyle=orthogonalEdgeStyle;rounded=0;orthogonalLoop=1;jettySize=auto;html=1;entryX=0;entryY=0.5;entryDx=0;entryDy=0;" edge="1" parent="1" source="sELiH9b5jh_TGQpdXkiS-7" target="sELiH9b5jh_TGQpdXkiS-3">
          <mxGeometry relative="1" as="geometry">
            <Array as="points">
              <mxPoint x="400" y="380" />
              <mxPoint x="280" y="380" />
              <mxPoint x="280" y="200" />
            </Array>
          </mxGeometry>
        </mxCell>
        <mxCell id="sELiH9b5jh_TGQpdXkiS-7" value="stack.pop();" style="whiteSpace=wrap;html=1;rounded=0;" vertex="1" parent="1">
          <mxGeometry x="330" y="320" width="140" height="40" as="geometry" />
        </mxCell>
        <mxCell id="sELiH9b5jh_TGQpdXkiS-8" value="1" style="text;html=1;align=center;verticalAlign=middle;resizable=0;points=[];autosize=1;strokeColor=none;fillColor=none;" vertex="1" parent="1">
          <mxGeometry x="400" y="230" width="30" height="30" as="geometry" />
        </mxCell>
        <mxCell id="sELiH9b5jh_TGQpdXkiS-9" value="{" style="text;html=1;align=center;verticalAlign=middle;resizable=0;points=[];autosize=1;strokeColor=none;fillColor=none;" vertex="1" parent="1">
          <mxGeometry x="370" y="220" width="30" height="30" as="geometry" />
        </mxCell>
        <mxCell id="sELiH9b5jh_TGQpdXkiS-10" value="}" style="text;html=1;align=center;verticalAlign=middle;resizable=0;points=[];autosize=1;strokeColor=none;fillColor=none;" vertex="1" parent="1">
          <mxGeometry x="400" y="360" width="30" height="30" as="geometry" />
        </mxCell>
        <mxCell id="sELiH9b5jh_TGQpdXkiS-11" value="0" style="text;html=1;align=center;verticalAlign=middle;resizable=0;points=[];autosize=1;strokeColor=none;fillColor=none;" vertex="1" parent="1">
          <mxGeometry x="510" y="170" width="30" height="30" as="geometry" />
        </mxCell>
        <mxCell id="DLsr-dDzAjs14zjQ3pSc-1" value="" style="edgeStyle=orthogonalEdgeStyle;rounded=0;orthogonalLoop=1;jettySize=auto;html=1;" edge="1" parent="1" source="DLsr-dDzAjs14zjQ3pSc-2" target="DLsr-dDzAjs14zjQ3pSc-5">
          <mxGeometry relative="1" as="geometry" />
        </mxCell>
        <mxCell id="DLsr-dDzAjs14zjQ3pSc-2" value="char value;" style="whiteSpace=wrap;html=1;" vertex="1" parent="1">
          <mxGeometry x="340" y="420" width="120" height="40" as="geometry" />
        </mxCell>
        <mxCell id="DLsr-dDzAjs14zjQ3pSc-3" value="" style="edgeStyle=orthogonalEdgeStyle;rounded=0;orthogonalLoop=1;jettySize=auto;html=1;" edge="1" parent="1" source="DLsr-dDzAjs14zjQ3pSc-5" target="DLsr-dDzAjs14zjQ3pSc-7">
          <mxGeometry relative="1" as="geometry" />
        </mxCell>
        <mxCell id="DLsr-dDzAjs14zjQ3pSc-16" style="edgeStyle=orthogonalEdgeStyle;rounded=0;orthogonalLoop=1;jettySize=auto;html=1;entryX=0.5;entryY=0;entryDx=0;entryDy=0;" edge="1" parent="1" source="DLsr-dDzAjs14zjQ3pSc-5" target="DLsr-dDzAjs14zjQ3pSc-18">
          <mxGeometry relative="1" as="geometry">
            <mxPoint x="400" y="780" as="targetPoint" />
            <Array as="points">
              <mxPoint x="530" y="500" />
              <mxPoint x="530" y="760" />
              <mxPoint x="400" y="760" />
            </Array>
          </mxGeometry>
        </mxCell>
        <mxCell id="DLsr-dDzAjs14zjQ3pSc-5" value="for (int i = 1; i &amp;lt;= k; i++)" style="shape=hexagon;perimeter=hexagonPerimeter2;whiteSpace=wrap;html=1;fixedSize=1;" vertex="1" parent="1">
          <mxGeometry x="315" y="480" width="170" height="40" as="geometry" />
        </mxCell>
        <mxCell id="DLsr-dDzAjs14zjQ3pSc-6" value="" style="edgeStyle=orthogonalEdgeStyle;rounded=0;orthogonalLoop=1;jettySize=auto;html=1;" edge="1" parent="1" source="DLsr-dDzAjs14zjQ3pSc-7" target="DLsr-dDzAjs14zjQ3pSc-11">
          <mxGeometry relative="1" as="geometry" />
        </mxCell>
        <mxCell id="DLsr-dDzAjs14zjQ3pSc-7" value="cout &amp;lt;&amp;lt; &quot;Введите новый элемент: &quot;;" style="shape=parallelogram;perimeter=parallelogramPerimeter;whiteSpace=wrap;html=1;fixedSize=1;" vertex="1" parent="1">
          <mxGeometry x="285" y="560" width="230" height="40" as="geometry" />
        </mxCell>
        <mxCell id="DLsr-dDzAjs14zjQ3pSc-8" value="{" style="text;html=1;align=center;verticalAlign=middle;resizable=0;points=[];autosize=1;strokeColor=none;fillColor=none;" vertex="1" parent="1">
          <mxGeometry x="367.5" y="520" width="30" height="30" as="geometry" />
        </mxCell>
        <mxCell id="DLsr-dDzAjs14zjQ3pSc-9" value="1" style="text;html=1;align=center;verticalAlign=middle;resizable=0;points=[];autosize=1;strokeColor=none;fillColor=none;" vertex="1" parent="1">
          <mxGeometry x="396.5" y="530" width="30" height="30" as="geometry" />
        </mxCell>
        <mxCell id="DLsr-dDzAjs14zjQ3pSc-10" value="" style="edgeStyle=orthogonalEdgeStyle;rounded=0;orthogonalLoop=1;jettySize=auto;html=1;" edge="1" parent="1" source="DLsr-dDzAjs14zjQ3pSc-11" target="DLsr-dDzAjs14zjQ3pSc-13">
          <mxGeometry relative="1" as="geometry" />
        </mxCell>
        <mxCell id="DLsr-dDzAjs14zjQ3pSc-11" value="cin &amp;gt;&amp;gt; value;" style="shape=parallelogram;perimeter=parallelogramPerimeter;whiteSpace=wrap;html=1;fixedSize=1;" vertex="1" parent="1">
          <mxGeometry x="340" y="620" width="120" height="40" as="geometry" />
        </mxCell>
        <mxCell id="DLsr-dDzAjs14zjQ3pSc-12" style="edgeStyle=orthogonalEdgeStyle;rounded=0;orthogonalLoop=1;jettySize=auto;html=1;entryX=0;entryY=0.5;entryDx=0;entryDy=0;" edge="1" parent="1" source="DLsr-dDzAjs14zjQ3pSc-13" target="DLsr-dDzAjs14zjQ3pSc-5">
          <mxGeometry relative="1" as="geometry">
            <Array as="points">
              <mxPoint x="400" y="740" />
              <mxPoint x="270" y="740" />
              <mxPoint x="270" y="500" />
            </Array>
          </mxGeometry>
        </mxCell>
        <mxCell id="DLsr-dDzAjs14zjQ3pSc-13" value="stack.push(value);" style="whiteSpace=wrap;html=1;" vertex="1" parent="1">
          <mxGeometry x="340" y="680" width="120" height="40" as="geometry" />
        </mxCell>
        <mxCell id="DLsr-dDzAjs14zjQ3pSc-14" value="}" style="text;html=1;align=center;verticalAlign=middle;resizable=0;points=[];autosize=1;strokeColor=none;fillColor=none;" vertex="1" parent="1">
          <mxGeometry x="396.5" y="720" width="30" height="30" as="geometry" />
        </mxCell>
        <mxCell id="DLsr-dDzAjs14zjQ3pSc-15" value="0" style="text;html=1;align=center;verticalAlign=middle;resizable=0;points=[];autosize=1;strokeColor=none;fillColor=none;" vertex="1" parent="1">
          <mxGeometry x="500" y="470" width="30" height="30" as="geometry" />
        </mxCell>
        <mxCell id="DLsr-dDzAjs14zjQ3pSc-30" style="edgeStyle=orthogonalEdgeStyle;rounded=0;orthogonalLoop=1;jettySize=auto;html=1;entryX=0.5;entryY=0;entryDx=0;entryDy=0;" edge="1" parent="1" source="DLsr-dDzAjs14zjQ3pSc-18" target="DLsr-dDzAjs14zjQ3pSc-21">
          <mxGeometry relative="1" as="geometry" />
        </mxCell>
        <mxCell id="DLsr-dDzAjs14zjQ3pSc-18" value="int size = new_stack.size;" style="rounded=0;whiteSpace=wrap;html=1;" vertex="1" parent="1">
          <mxGeometry x="320" y="780" width="160" height="40" as="geometry" />
        </mxCell>
        <mxCell id="DLsr-dDzAjs14zjQ3pSc-19" value="" style="edgeStyle=orthogonalEdgeStyle;rounded=0;orthogonalLoop=1;jettySize=auto;html=1;" edge="1" parent="1" source="DLsr-dDzAjs14zjQ3pSc-21" target="DLsr-dDzAjs14zjQ3pSc-23">
          <mxGeometry relative="1" as="geometry" />
        </mxCell>
        <mxCell id="DLsr-dDzAjs14zjQ3pSc-20" style="edgeStyle=orthogonalEdgeStyle;rounded=0;orthogonalLoop=1;jettySize=auto;html=1;entryX=0.5;entryY=0;entryDx=0;entryDy=0;" edge="1" parent="1" source="DLsr-dDzAjs14zjQ3pSc-21" target="YQmKtgDWy8P-hzeuiR7B-1">
          <mxGeometry relative="1" as="geometry">
            <mxPoint x="400" y="1080" as="targetPoint" />
            <Array as="points">
              <mxPoint x="530" y="860" />
              <mxPoint x="530" y="1060" />
              <mxPoint x="400" y="1060" />
            </Array>
          </mxGeometry>
        </mxCell>
        <mxCell id="DLsr-dDzAjs14zjQ3pSc-21" value="for (int i = 0; i &amp;lt; size; i++)" style="shape=hexagon;perimeter=hexagonPerimeter2;whiteSpace=wrap;html=1;fixedSize=1;rounded=0;" vertex="1" parent="1">
          <mxGeometry x="315" y="840" width="170" height="40" as="geometry" />
        </mxCell>
        <mxCell id="DLsr-dDzAjs14zjQ3pSc-22" value="" style="edgeStyle=orthogonalEdgeStyle;rounded=0;orthogonalLoop=1;jettySize=auto;html=1;" edge="1" parent="1" source="DLsr-dDzAjs14zjQ3pSc-23" target="DLsr-dDzAjs14zjQ3pSc-25">
          <mxGeometry relative="1" as="geometry" />
        </mxCell>
        <mxCell id="DLsr-dDzAjs14zjQ3pSc-23" value="stack.push(new_stack.head-&amp;gt;data);" style="whiteSpace=wrap;html=1;rounded=0;" vertex="1" parent="1">
          <mxGeometry x="300" y="920" width="200" height="40" as="geometry" />
        </mxCell>
        <mxCell id="DLsr-dDzAjs14zjQ3pSc-24" style="edgeStyle=orthogonalEdgeStyle;rounded=0;orthogonalLoop=1;jettySize=auto;html=1;entryX=0;entryY=0.5;entryDx=0;entryDy=0;" edge="1" parent="1" source="DLsr-dDzAjs14zjQ3pSc-25" target="DLsr-dDzAjs14zjQ3pSc-21">
          <mxGeometry relative="1" as="geometry">
            <Array as="points">
              <mxPoint x="400" y="1040" />
              <mxPoint x="280" y="1040" />
              <mxPoint x="280" y="860" />
            </Array>
          </mxGeometry>
        </mxCell>
        <mxCell id="DLsr-dDzAjs14zjQ3pSc-25" value="new_stack.pop();" style="whiteSpace=wrap;html=1;rounded=0;" vertex="1" parent="1">
          <mxGeometry x="330" y="980" width="140" height="40" as="geometry" />
        </mxCell>
        <mxCell id="DLsr-dDzAjs14zjQ3pSc-26" value="1" style="text;html=1;align=center;verticalAlign=middle;resizable=0;points=[];autosize=1;strokeColor=none;fillColor=none;" vertex="1" parent="1">
          <mxGeometry x="400" y="890" width="30" height="30" as="geometry" />
        </mxCell>
        <mxCell id="DLsr-dDzAjs14zjQ3pSc-27" value="{" style="text;html=1;align=center;verticalAlign=middle;resizable=0;points=[];autosize=1;strokeColor=none;fillColor=none;" vertex="1" parent="1">
          <mxGeometry x="370" y="880" width="30" height="30" as="geometry" />
        </mxCell>
        <mxCell id="DLsr-dDzAjs14zjQ3pSc-28" value="}" style="text;html=1;align=center;verticalAlign=middle;resizable=0;points=[];autosize=1;strokeColor=none;fillColor=none;" vertex="1" parent="1">
          <mxGeometry x="400" y="1020" width="30" height="30" as="geometry" />
        </mxCell>
        <mxCell id="DLsr-dDzAjs14zjQ3pSc-29" value="0" style="text;html=1;align=center;verticalAlign=middle;resizable=0;points=[];autosize=1;strokeColor=none;fillColor=none;" vertex="1" parent="1">
          <mxGeometry x="510" y="830" width="30" height="30" as="geometry" />
        </mxCell>
        <mxCell id="YQmKtgDWy8P-hzeuiR7B-1" value="return;" style="ellipse;whiteSpace=wrap;html=1;" vertex="1" parent="1">
          <mxGeometry x="340" y="1080" width="120" height="40" as="geometry" />
        </mxCell>
        <mxCell id="YQmKtgDWy8P-hzeuiR7B-3" value="}" style="text;html=1;align=center;verticalAlign=middle;resizable=0;points=[];autosize=1;strokeColor=none;fillColor=none;" vertex="1" parent="1">
          <mxGeometry x="396.5" y="1120" width="30" height="30" as="geometry" />
        </mxCell>
        <mxCell id="Dm60apLm07BIA9g3koJN-1" value="{" style="text;html=1;align=center;verticalAlign=middle;resizable=0;points=[];autosize=1;strokeColor=none;fillColor=none;" vertex="1" parent="1">
          <mxGeometry x="370" y="80" width="30" height="30" as="geometry" />
        </mxCell>
      </root>
    </mxGraphModel>
  </diagram>
  <diagram id="ybNBpDj72_0lrBN6BVbW" name="Node">
    <mxGraphModel dx="921" dy="512" grid="1" gridSize="10" guides="1" tooltips="1" connect="1" arrows="1" fold="1" page="1" pageScale="1" pageWidth="827" pageHeight="1169" math="0" shadow="0">
      <root>
        <mxCell id="0" />
        <mxCell id="1" parent="0" />
        <mxCell id="ZYXyfbLV85eJcwU6h4gz-4" value="" style="edgeStyle=orthogonalEdgeStyle;rounded=0;orthogonalLoop=1;jettySize=auto;html=1;" edge="1" parent="1" source="ZYXyfbLV85eJcwU6h4gz-2" target="ZYXyfbLV85eJcwU6h4gz-3">
          <mxGeometry relative="1" as="geometry" />
        </mxCell>
        <mxCell id="ZYXyfbLV85eJcwU6h4gz-2" value="struct Node" style="shape=process;whiteSpace=wrap;html=1;backgroundOutline=1;fillColor=#f5f5f5;fontColor=#333333;strokeColor=#666666;" vertex="1" parent="1">
          <mxGeometry x="340" y="80" width="120" height="40" as="geometry" />
        </mxCell>
        <mxCell id="ZYXyfbLV85eJcwU6h4gz-7" value="" style="edgeStyle=orthogonalEdgeStyle;rounded=0;orthogonalLoop=1;jettySize=auto;html=1;" edge="1" parent="1" source="ZYXyfbLV85eJcwU6h4gz-3" target="ZYXyfbLV85eJcwU6h4gz-6">
          <mxGeometry relative="1" as="geometry" />
        </mxCell>
        <mxCell id="ZYXyfbLV85eJcwU6h4gz-3" value="char data;" style="whiteSpace=wrap;html=1;" vertex="1" parent="1">
          <mxGeometry x="340" y="160" width="120" height="40" as="geometry" />
        </mxCell>
        <mxCell id="ZYXyfbLV85eJcwU6h4gz-5" value="{" style="text;html=1;align=center;verticalAlign=middle;resizable=0;points=[];autosize=1;strokeColor=none;fillColor=none;" vertex="1" parent="1">
          <mxGeometry x="375" y="120" width="30" height="30" as="geometry" />
        </mxCell>
        <mxCell id="ZYXyfbLV85eJcwU6h4gz-9" value="" style="edgeStyle=orthogonalEdgeStyle;rounded=0;orthogonalLoop=1;jettySize=auto;html=1;" edge="1" parent="1" source="ZYXyfbLV85eJcwU6h4gz-6" target="ZYXyfbLV85eJcwU6h4gz-8">
          <mxGeometry relative="1" as="geometry" />
        </mxCell>
        <mxCell id="ZYXyfbLV85eJcwU6h4gz-6" value="Node* next_ptr;" style="whiteSpace=wrap;html=1;" vertex="1" parent="1">
          <mxGeometry x="340" y="220" width="120" height="40" as="geometry" />
        </mxCell>
        <mxCell id="ZYXyfbLV85eJcwU6h4gz-11" value="" style="edgeStyle=orthogonalEdgeStyle;rounded=0;orthogonalLoop=1;jettySize=auto;html=1;" edge="1" parent="1" source="ZYXyfbLV85eJcwU6h4gz-8" target="ZYXyfbLV85eJcwU6h4gz-10">
          <mxGeometry relative="1" as="geometry" />
        </mxCell>
        <mxCell id="ZYXyfbLV85eJcwU6h4gz-8" value="void init_node(char Data, Node* Next_ptr)" style="shape=process;whiteSpace=wrap;html=1;backgroundOutline=1;size=0.034482758620689655;" vertex="1" parent="1">
          <mxGeometry x="275" y="280" width="250" height="40" as="geometry" />
        </mxCell>
        <mxCell id="ZYXyfbLV85eJcwU6h4gz-14" value="" style="edgeStyle=orthogonalEdgeStyle;rounded=0;orthogonalLoop=1;jettySize=auto;html=1;" edge="1" parent="1" source="ZYXyfbLV85eJcwU6h4gz-10" target="ZYXyfbLV85eJcwU6h4gz-13">
          <mxGeometry relative="1" as="geometry" />
        </mxCell>
        <mxCell id="ZYXyfbLV85eJcwU6h4gz-10" value="data = Data;" style="whiteSpace=wrap;html=1;" vertex="1" parent="1">
          <mxGeometry x="340" y="360" width="120" height="40" as="geometry" />
        </mxCell>
        <mxCell id="ZYXyfbLV85eJcwU6h4gz-12" value="{" style="text;html=1;align=center;verticalAlign=middle;resizable=0;points=[];autosize=1;strokeColor=none;fillColor=none;" vertex="1" parent="1">
          <mxGeometry x="375" y="320" width="30" height="30" as="geometry" />
        </mxCell>
        <mxCell id="JyoPvsAAVszSOq7Ph069-2" style="edgeStyle=orthogonalEdgeStyle;rounded=0;orthogonalLoop=1;jettySize=auto;html=1;entryX=0.5;entryY=0;entryDx=0;entryDy=0;" edge="1" parent="1" source="ZYXyfbLV85eJcwU6h4gz-13" target="JyoPvsAAVszSOq7Ph069-1">
          <mxGeometry relative="1" as="geometry" />
        </mxCell>
        <mxCell id="ZYXyfbLV85eJcwU6h4gz-13" value="next_ptr = Next_ptr;" style="whiteSpace=wrap;html=1;" vertex="1" parent="1">
          <mxGeometry x="340" y="420" width="120" height="40" as="geometry" />
        </mxCell>
        <mxCell id="JyoPvsAAVszSOq7Ph069-1" value="return;" style="ellipse;whiteSpace=wrap;html=1;" vertex="1" parent="1">
          <mxGeometry x="340" y="480" width="120" height="40" as="geometry" />
        </mxCell>
        <mxCell id="JyoPvsAAVszSOq7Ph069-4" value="}" style="text;html=1;align=center;verticalAlign=middle;resizable=0;points=[];autosize=1;strokeColor=none;fillColor=none;" vertex="1" parent="1">
          <mxGeometry x="399" y="520" width="30" height="30" as="geometry" />
        </mxCell>
        <mxCell id="JyoPvsAAVszSOq7Ph069-5" value="};" style="text;html=1;align=center;verticalAlign=middle;resizable=0;points=[];autosize=1;strokeColor=none;fillColor=none;" vertex="1" parent="1">
          <mxGeometry x="385" y="550" width="30" height="30" as="geometry" />
        </mxCell>
      </root>
    </mxGraphModel>
  </diagram>
  <diagram id="eV44Gq-yPD_t43SYu5YC" name="Stack">
    <mxGraphModel dx="1290" dy="717" grid="1" gridSize="10" guides="1" tooltips="1" connect="1" arrows="1" fold="1" page="1" pageScale="1" pageWidth="827" pageHeight="1169" math="0" shadow="0">
      <root>
        <mxCell id="0" />
        <mxCell id="1" parent="0" />
        <mxCell id="rpO_SGNHAFbz7P3wHKgV-10" value="" style="edgeStyle=orthogonalEdgeStyle;rounded=0;orthogonalLoop=1;jettySize=auto;html=1;" parent="1" source="rpO_SGNHAFbz7P3wHKgV-7" target="rpO_SGNHAFbz7P3wHKgV-9" edge="1">
          <mxGeometry relative="1" as="geometry" />
        </mxCell>
        <mxCell id="rpO_SGNHAFbz7P3wHKgV-7" value="void push(char data)" style="shape=process;whiteSpace=wrap;html=1;backgroundOutline=1;size=0.06666666666666667;" parent="1" vertex="1">
          <mxGeometry x="325" y="120" width="150" height="40" as="geometry" />
        </mxCell>
        <mxCell id="rpO_SGNHAFbz7P3wHKgV-13" value="" style="edgeStyle=orthogonalEdgeStyle;rounded=0;orthogonalLoop=1;jettySize=auto;html=1;" parent="1" source="rpO_SGNHAFbz7P3wHKgV-9" target="rpO_SGNHAFbz7P3wHKgV-12" edge="1">
          <mxGeometry relative="1" as="geometry" />
        </mxCell>
        <mxCell id="rpO_SGNHAFbz7P3wHKgV-9" value="Node* node = new Node;" style="whiteSpace=wrap;html=1;" parent="1" vertex="1">
          <mxGeometry x="325" y="200" width="150" height="40" as="geometry" />
        </mxCell>
        <mxCell id="rpO_SGNHAFbz7P3wHKgV-11" value="{" style="text;html=1;align=center;verticalAlign=middle;resizable=0;points=[];autosize=1;strokeColor=none;fillColor=none;" parent="1" vertex="1">
          <mxGeometry x="375" y="160" width="30" height="30" as="geometry" />
        </mxCell>
        <mxCell id="rpO_SGNHAFbz7P3wHKgV-15" value="" style="edgeStyle=orthogonalEdgeStyle;rounded=0;orthogonalLoop=1;jettySize=auto;html=1;" parent="1" source="rpO_SGNHAFbz7P3wHKgV-12" target="rpO_SGNHAFbz7P3wHKgV-14" edge="1">
          <mxGeometry relative="1" as="geometry" />
        </mxCell>
        <mxCell id="rpO_SGNHAFbz7P3wHKgV-12" value="node-&amp;gt;init_node(data, head);" style="whiteSpace=wrap;html=1;" parent="1" vertex="1">
          <mxGeometry x="307.5" y="260" width="185" height="40" as="geometry" />
        </mxCell>
        <mxCell id="rpO_SGNHAFbz7P3wHKgV-17" value="" style="edgeStyle=orthogonalEdgeStyle;rounded=0;orthogonalLoop=1;jettySize=auto;html=1;" parent="1" source="rpO_SGNHAFbz7P3wHKgV-14" target="rpO_SGNHAFbz7P3wHKgV-16" edge="1">
          <mxGeometry relative="1" as="geometry" />
        </mxCell>
        <mxCell id="rpO_SGNHAFbz7P3wHKgV-14" value="head = node;" style="whiteSpace=wrap;html=1;" parent="1" vertex="1">
          <mxGeometry x="338.75" y="320" width="122.5" height="40" as="geometry" />
        </mxCell>
        <mxCell id="rpO_SGNHAFbz7P3wHKgV-19" value="" style="edgeStyle=orthogonalEdgeStyle;rounded=0;orthogonalLoop=1;jettySize=auto;html=1;entryX=0.5;entryY=0;entryDx=0;entryDy=0;" parent="1" source="rpO_SGNHAFbz7P3wHKgV-16" target="al1mT7tdYFEabx9WJTDM-1" edge="1">
          <mxGeometry relative="1" as="geometry">
            <mxPoint x="400" y="440" as="targetPoint" />
          </mxGeometry>
        </mxCell>
        <mxCell id="rpO_SGNHAFbz7P3wHKgV-16" value="size++;" style="whiteSpace=wrap;html=1;" parent="1" vertex="1">
          <mxGeometry x="338.75" y="380" width="122.5" height="40" as="geometry" />
        </mxCell>
        <mxCell id="rpO_SGNHAFbz7P3wHKgV-18" value="b" style="ellipse;whiteSpace=wrap;html=1;" parent="1" vertex="1">
          <mxGeometry x="380" y="510" width="40" height="37" as="geometry" />
        </mxCell>
        <mxCell id="rpO_SGNHAFbz7P3wHKgV-20" style="edgeStyle=orthogonalEdgeStyle;rounded=0;orthogonalLoop=1;jettySize=auto;html=1;exitX=0.5;exitY=1;exitDx=0;exitDy=0;" parent="1" source="rpO_SGNHAFbz7P3wHKgV-18" target="rpO_SGNHAFbz7P3wHKgV-18" edge="1">
          <mxGeometry relative="1" as="geometry" />
        </mxCell>
        <mxCell id="rpO_SGNHAFbz7P3wHKgV-21" value="}" style="text;html=1;align=center;verticalAlign=middle;resizable=0;points=[];autosize=1;strokeColor=none;fillColor=none;" parent="1" vertex="1">
          <mxGeometry x="399" y="480" width="30" height="30" as="geometry" />
        </mxCell>
        <mxCell id="gUBCh_0uCxLduQ25iews-6" style="edgeStyle=orthogonalEdgeStyle;rounded=0;orthogonalLoop=1;jettySize=auto;html=1;" parent="1" source="rpO_SGNHAFbz7P3wHKgV-22" target="gUBCh_0uCxLduQ25iews-7" edge="1">
          <mxGeometry relative="1" as="geometry">
            <mxPoint x="920" y="120" as="targetPoint" />
          </mxGeometry>
        </mxCell>
        <mxCell id="rpO_SGNHAFbz7P3wHKgV-22" value="b" style="ellipse;whiteSpace=wrap;html=1;" parent="1" vertex="1">
          <mxGeometry x="900" y="60" width="40" height="37" as="geometry" />
        </mxCell>
        <mxCell id="gUBCh_0uCxLduQ25iews-1" value="" style="edgeStyle=orthogonalEdgeStyle;rounded=0;orthogonalLoop=1;jettySize=auto;html=1;exitX=0;exitY=0.5;exitDx=0;exitDy=0;" parent="1" source="gUBCh_0uCxLduQ25iews-2" target="gUBCh_0uCxLduQ25iews-3" edge="1">
          <mxGeometry relative="1" as="geometry" />
        </mxCell>
        <mxCell id="gUBCh_0uCxLduQ25iews-17" style="edgeStyle=orthogonalEdgeStyle;rounded=0;orthogonalLoop=1;jettySize=auto;html=1;" parent="1" source="gUBCh_0uCxLduQ25iews-2" edge="1">
          <mxGeometry relative="1" as="geometry">
            <mxPoint x="920" y="540" as="targetPoint" />
            <Array as="points">
              <mxPoint x="1060" y="220" />
              <mxPoint x="1060" y="540" />
            </Array>
          </mxGeometry>
        </mxCell>
        <mxCell id="gUBCh_0uCxLduQ25iews-2" value="if (head != nullptr)" style="rhombus;whiteSpace=wrap;html=1;" parent="1" vertex="1">
          <mxGeometry x="815" y="200" width="210" height="40" as="geometry" />
        </mxCell>
        <mxCell id="gUBCh_0uCxLduQ25iews-11" value="" style="edgeStyle=orthogonalEdgeStyle;rounded=0;orthogonalLoop=1;jettySize=auto;html=1;" parent="1" source="gUBCh_0uCxLduQ25iews-3" target="gUBCh_0uCxLduQ25iews-10" edge="1">
          <mxGeometry relative="1" as="geometry" />
        </mxCell>
        <mxCell id="gUBCh_0uCxLduQ25iews-3" value="Node* node = head;" style="whiteSpace=wrap;html=1;" parent="1" vertex="1">
          <mxGeometry x="690" y="280" width="140" height="40" as="geometry" />
        </mxCell>
        <mxCell id="gUBCh_0uCxLduQ25iews-4" value="1" style="text;html=1;align=center;verticalAlign=middle;resizable=0;points=[];autosize=1;strokeColor=none;fillColor=none;" parent="1" vertex="1">
          <mxGeometry x="760" y="190" width="30" height="30" as="geometry" />
        </mxCell>
        <mxCell id="gUBCh_0uCxLduQ25iews-5" value="0" style="text;html=1;align=center;verticalAlign=middle;resizable=0;points=[];autosize=1;strokeColor=none;fillColor=none;" parent="1" vertex="1">
          <mxGeometry x="1040" y="190" width="30" height="30" as="geometry" />
        </mxCell>
        <mxCell id="gUBCh_0uCxLduQ25iews-8" style="edgeStyle=orthogonalEdgeStyle;rounded=0;orthogonalLoop=1;jettySize=auto;html=1;entryX=0.5;entryY=0;entryDx=0;entryDy=0;" parent="1" source="gUBCh_0uCxLduQ25iews-7" target="gUBCh_0uCxLduQ25iews-2" edge="1">
          <mxGeometry relative="1" as="geometry" />
        </mxCell>
        <mxCell id="gUBCh_0uCxLduQ25iews-7" value="void pop()" style="shape=process;whiteSpace=wrap;html=1;backgroundOutline=1;" parent="1" vertex="1">
          <mxGeometry x="860" y="120" width="120" height="40" as="geometry" />
        </mxCell>
        <mxCell id="gUBCh_0uCxLduQ25iews-9" value="{" style="text;html=1;align=center;verticalAlign=middle;resizable=0;points=[];autosize=1;strokeColor=none;fillColor=none;" parent="1" vertex="1">
          <mxGeometry x="895" y="158" width="30" height="30" as="geometry" />
        </mxCell>
        <mxCell id="gUBCh_0uCxLduQ25iews-13" value="" style="edgeStyle=orthogonalEdgeStyle;rounded=0;orthogonalLoop=1;jettySize=auto;html=1;" parent="1" source="gUBCh_0uCxLduQ25iews-10" target="gUBCh_0uCxLduQ25iews-12" edge="1">
          <mxGeometry relative="1" as="geometry" />
        </mxCell>
        <mxCell id="gUBCh_0uCxLduQ25iews-10" value="head = head-&amp;gt;next_ptr;" style="whiteSpace=wrap;html=1;" parent="1" vertex="1">
          <mxGeometry x="690" y="340" width="140" height="40" as="geometry" />
        </mxCell>
        <mxCell id="gUBCh_0uCxLduQ25iews-15" value="" style="edgeStyle=orthogonalEdgeStyle;rounded=0;orthogonalLoop=1;jettySize=auto;html=1;" parent="1" source="gUBCh_0uCxLduQ25iews-12" target="gUBCh_0uCxLduQ25iews-14" edge="1">
          <mxGeometry relative="1" as="geometry" />
        </mxCell>
        <mxCell id="gUBCh_0uCxLduQ25iews-12" value="delete node;" style="whiteSpace=wrap;html=1;" parent="1" vertex="1">
          <mxGeometry x="690" y="400" width="140" height="40" as="geometry" />
        </mxCell>
        <mxCell id="gUBCh_0uCxLduQ25iews-16" style="edgeStyle=orthogonalEdgeStyle;rounded=0;orthogonalLoop=1;jettySize=auto;html=1;exitX=0.5;exitY=1;exitDx=0;exitDy=0;" parent="1" source="gUBCh_0uCxLduQ25iews-14" edge="1">
          <mxGeometry relative="1" as="geometry">
            <mxPoint x="920" y="540" as="targetPoint" />
            <Array as="points">
              <mxPoint x="760" y="540" />
              <mxPoint x="920" y="540" />
            </Array>
          </mxGeometry>
        </mxCell>
        <mxCell id="gUBCh_0uCxLduQ25iews-14" value="size--;" style="whiteSpace=wrap;html=1;" parent="1" vertex="1">
          <mxGeometry x="690" y="460" width="140" height="40" as="geometry" />
        </mxCell>
        <mxCell id="gUBCh_0uCxLduQ25iews-18" value="{" style="text;html=1;align=center;verticalAlign=middle;resizable=0;points=[];autosize=1;strokeColor=none;fillColor=none;" parent="1" vertex="1">
          <mxGeometry x="730" y="250" width="30" height="30" as="geometry" />
        </mxCell>
        <mxCell id="gUBCh_0uCxLduQ25iews-19" value="}" style="text;html=1;align=center;verticalAlign=middle;resizable=0;points=[];autosize=1;strokeColor=none;fillColor=none;" parent="1" vertex="1">
          <mxGeometry x="760" y="500" width="30" height="30" as="geometry" />
        </mxCell>
        <mxCell id="gUBCh_0uCxLduQ25iews-20" value="" style="endArrow=classic;html=1;rounded=0;entryX=0.5;entryY=0;entryDx=0;entryDy=0;" parent="1" target="al1mT7tdYFEabx9WJTDM-4" edge="1">
          <mxGeometry width="50" height="50" relative="1" as="geometry">
            <mxPoint x="920" y="540" as="sourcePoint" />
            <mxPoint x="920" y="560" as="targetPoint" />
          </mxGeometry>
        </mxCell>
        <mxCell id="al1mT7tdYFEabx9WJTDM-3" style="edgeStyle=orthogonalEdgeStyle;rounded=0;orthogonalLoop=1;jettySize=auto;html=1;entryX=0.5;entryY=0;entryDx=0;entryDy=0;" parent="1" source="al1mT7tdYFEabx9WJTDM-1" target="rpO_SGNHAFbz7P3wHKgV-18" edge="1">
          <mxGeometry relative="1" as="geometry" />
        </mxCell>
        <mxCell id="al1mT7tdYFEabx9WJTDM-1" value="return;" style="ellipse;whiteSpace=wrap;html=1;" parent="1" vertex="1">
          <mxGeometry x="340" y="440" width="120" height="40" as="geometry" />
        </mxCell>
        <mxCell id="al1mT7tdYFEabx9WJTDM-6" style="edgeStyle=orthogonalEdgeStyle;rounded=0;orthogonalLoop=1;jettySize=auto;html=1;entryX=0.5;entryY=0;entryDx=0;entryDy=0;" parent="1" source="al1mT7tdYFEabx9WJTDM-4" target="al1mT7tdYFEabx9WJTDM-5" edge="1">
          <mxGeometry relative="1" as="geometry" />
        </mxCell>
        <mxCell id="al1mT7tdYFEabx9WJTDM-4" value="return;" style="ellipse;whiteSpace=wrap;html=1;" parent="1" vertex="1">
          <mxGeometry x="860" y="560" width="120" height="40" as="geometry" />
        </mxCell>
        <mxCell id="al1mT7tdYFEabx9WJTDM-5" value="c" style="ellipse;whiteSpace=wrap;html=1;" parent="1" vertex="1">
          <mxGeometry x="900" y="640" width="40" height="37" as="geometry" />
        </mxCell>
        <mxCell id="al1mT7tdYFEabx9WJTDM-7" value="}" style="text;html=1;align=center;verticalAlign=middle;resizable=0;points=[];autosize=1;strokeColor=none;fillColor=none;" parent="1" vertex="1">
          <mxGeometry x="920" y="600" width="30" height="30" as="geometry" />
        </mxCell>
        <mxCell id="al1mT7tdYFEabx9WJTDM-9" style="edgeStyle=orthogonalEdgeStyle;rounded=0;orthogonalLoop=1;jettySize=auto;html=1;" parent="1" source="al1mT7tdYFEabx9WJTDM-10" target="al1mT7tdYFEabx9WJTDM-19" edge="1">
          <mxGeometry relative="1" as="geometry">
            <mxPoint x="1410" y="120" as="targetPoint" />
          </mxGeometry>
        </mxCell>
        <mxCell id="al1mT7tdYFEabx9WJTDM-10" value="c" style="ellipse;whiteSpace=wrap;html=1;" parent="1" vertex="1">
          <mxGeometry x="1390" y="60" width="40" height="37" as="geometry" />
        </mxCell>
        <mxCell id="al1mT7tdYFEabx9WJTDM-12" style="edgeStyle=orthogonalEdgeStyle;rounded=0;orthogonalLoop=1;jettySize=auto;html=1;entryX=0.5;entryY=0;entryDx=0;entryDy=0;" parent="1" source="al1mT7tdYFEabx9WJTDM-13" target="al1mT7tdYFEabx9WJTDM-31" edge="1">
          <mxGeometry relative="1" as="geometry">
            <mxPoint x="1410" y="560" as="targetPoint" />
            <Array as="points">
              <mxPoint x="1550" y="240" />
              <mxPoint x="1550" y="560" />
              <mxPoint x="1410" y="560" />
            </Array>
          </mxGeometry>
        </mxCell>
        <mxCell id="al1mT7tdYFEabx9WJTDM-43" style="edgeStyle=orthogonalEdgeStyle;rounded=0;orthogonalLoop=1;jettySize=auto;html=1;entryX=0.5;entryY=0;entryDx=0;entryDy=0;" parent="1" source="al1mT7tdYFEabx9WJTDM-13" target="al1mT7tdYFEabx9WJTDM-35" edge="1">
          <mxGeometry relative="1" as="geometry" />
        </mxCell>
        <mxCell id="al1mT7tdYFEabx9WJTDM-13" value="while (head != nullptr)" style="rhombus;whiteSpace=wrap;html=1;" parent="1" vertex="1">
          <mxGeometry x="1305" y="220" width="210" height="40" as="geometry" />
        </mxCell>
        <mxCell id="al1mT7tdYFEabx9WJTDM-16" value="1" style="text;html=1;align=center;verticalAlign=middle;resizable=0;points=[];autosize=1;strokeColor=none;fillColor=none;" parent="1" vertex="1">
          <mxGeometry x="1410" y="270" width="30" height="30" as="geometry" />
        </mxCell>
        <mxCell id="al1mT7tdYFEabx9WJTDM-17" value="0" style="text;html=1;align=center;verticalAlign=middle;resizable=0;points=[];autosize=1;strokeColor=none;fillColor=none;" parent="1" vertex="1">
          <mxGeometry x="1530" y="210" width="30" height="30" as="geometry" />
        </mxCell>
        <mxCell id="al1mT7tdYFEabx9WJTDM-18" style="edgeStyle=orthogonalEdgeStyle;rounded=0;orthogonalLoop=1;jettySize=auto;html=1;entryX=0.5;entryY=0;entryDx=0;entryDy=0;" parent="1" source="al1mT7tdYFEabx9WJTDM-19" target="al1mT7tdYFEabx9WJTDM-13" edge="1">
          <mxGeometry relative="1" as="geometry" />
        </mxCell>
        <mxCell id="al1mT7tdYFEabx9WJTDM-19" value="void clear()" style="shape=process;whiteSpace=wrap;html=1;backgroundOutline=1;" parent="1" vertex="1">
          <mxGeometry x="1350" y="120" width="120" height="40" as="geometry" />
        </mxCell>
        <mxCell id="al1mT7tdYFEabx9WJTDM-20" value="{" style="text;html=1;align=center;verticalAlign=middle;resizable=0;points=[];autosize=1;strokeColor=none;fillColor=none;" parent="1" vertex="1">
          <mxGeometry x="1380" y="160" width="30" height="30" as="geometry" />
        </mxCell>
        <mxCell id="al1mT7tdYFEabx9WJTDM-30" style="edgeStyle=orthogonalEdgeStyle;rounded=0;orthogonalLoop=1;jettySize=auto;html=1;entryX=0.5;entryY=0;entryDx=0;entryDy=0;" parent="1" source="al1mT7tdYFEabx9WJTDM-31" target="al1mT7tdYFEabx9WJTDM-32" edge="1">
          <mxGeometry relative="1" as="geometry" />
        </mxCell>
        <mxCell id="al1mT7tdYFEabx9WJTDM-31" value="return;" style="ellipse;whiteSpace=wrap;html=1;" parent="1" vertex="1">
          <mxGeometry x="1350" y="580" width="120" height="40" as="geometry" />
        </mxCell>
        <mxCell id="al1mT7tdYFEabx9WJTDM-32" value="d" style="ellipse;whiteSpace=wrap;html=1;" parent="1" vertex="1">
          <mxGeometry x="1390" y="660" width="40" height="37" as="geometry" />
        </mxCell>
        <mxCell id="al1mT7tdYFEabx9WJTDM-33" value="}" style="text;html=1;align=center;verticalAlign=middle;resizable=0;points=[];autosize=1;strokeColor=none;fillColor=none;" parent="1" vertex="1">
          <mxGeometry x="1410" y="620" width="30" height="30" as="geometry" />
        </mxCell>
        <mxCell id="al1mT7tdYFEabx9WJTDM-34" value="" style="edgeStyle=orthogonalEdgeStyle;rounded=0;orthogonalLoop=1;jettySize=auto;html=1;" parent="1" source="al1mT7tdYFEabx9WJTDM-35" target="al1mT7tdYFEabx9WJTDM-37" edge="1">
          <mxGeometry relative="1" as="geometry" />
        </mxCell>
        <mxCell id="al1mT7tdYFEabx9WJTDM-35" value="Node* node = head;" style="whiteSpace=wrap;html=1;" parent="1" vertex="1">
          <mxGeometry x="1340" y="300" width="140" height="40" as="geometry" />
        </mxCell>
        <mxCell id="al1mT7tdYFEabx9WJTDM-36" value="" style="edgeStyle=orthogonalEdgeStyle;rounded=0;orthogonalLoop=1;jettySize=auto;html=1;" parent="1" source="al1mT7tdYFEabx9WJTDM-37" target="al1mT7tdYFEabx9WJTDM-39" edge="1">
          <mxGeometry relative="1" as="geometry" />
        </mxCell>
        <mxCell id="al1mT7tdYFEabx9WJTDM-37" value="head = head-&amp;gt;next_ptr;" style="whiteSpace=wrap;html=1;" parent="1" vertex="1">
          <mxGeometry x="1340" y="360" width="140" height="40" as="geometry" />
        </mxCell>
        <mxCell id="al1mT7tdYFEabx9WJTDM-38" value="" style="edgeStyle=orthogonalEdgeStyle;rounded=0;orthogonalLoop=1;jettySize=auto;html=1;" parent="1" source="al1mT7tdYFEabx9WJTDM-39" target="al1mT7tdYFEabx9WJTDM-40" edge="1">
          <mxGeometry relative="1" as="geometry" />
        </mxCell>
        <mxCell id="al1mT7tdYFEabx9WJTDM-39" value="delete node;" style="whiteSpace=wrap;html=1;" parent="1" vertex="1">
          <mxGeometry x="1340" y="420" width="140" height="40" as="geometry" />
        </mxCell>
        <mxCell id="al1mT7tdYFEabx9WJTDM-44" style="edgeStyle=orthogonalEdgeStyle;rounded=0;orthogonalLoop=1;jettySize=auto;html=1;exitX=0.5;exitY=1;exitDx=0;exitDy=0;" parent="1" source="al1mT7tdYFEabx9WJTDM-40" edge="1">
          <mxGeometry relative="1" as="geometry">
            <mxPoint x="1410" y="200" as="targetPoint" />
            <Array as="points">
              <mxPoint x="1410" y="540" />
              <mxPoint x="1281" y="540" />
              <mxPoint x="1281" y="200" />
            </Array>
          </mxGeometry>
        </mxCell>
        <mxCell id="al1mT7tdYFEabx9WJTDM-40" value="size--;" style="whiteSpace=wrap;html=1;" parent="1" vertex="1">
          <mxGeometry x="1340" y="480" width="140" height="40" as="geometry" />
        </mxCell>
        <mxCell id="al1mT7tdYFEabx9WJTDM-41" value="{" style="text;html=1;align=center;verticalAlign=middle;resizable=0;points=[];autosize=1;strokeColor=none;fillColor=none;" parent="1" vertex="1">
          <mxGeometry x="1380" y="260" width="30" height="30" as="geometry" />
        </mxCell>
        <mxCell id="al1mT7tdYFEabx9WJTDM-42" value="}" style="text;html=1;align=center;verticalAlign=middle;resizable=0;points=[];autosize=1;strokeColor=none;fillColor=none;" parent="1" vertex="1">
          <mxGeometry x="1410" y="520" width="30" height="30" as="geometry" />
        </mxCell>
        <mxCell id="al1mT7tdYFEabx9WJTDM-47" value="" style="edgeStyle=orthogonalEdgeStyle;rounded=0;orthogonalLoop=1;jettySize=auto;html=1;" parent="1" source="al1mT7tdYFEabx9WJTDM-45" target="al1mT7tdYFEabx9WJTDM-46" edge="1">
          <mxGeometry relative="1" as="geometry" />
        </mxCell>
        <mxCell id="al1mT7tdYFEabx9WJTDM-45" value="d" style="ellipse;whiteSpace=wrap;html=1;" parent="1" vertex="1">
          <mxGeometry x="1880" y="60" width="40" height="37" as="geometry" />
        </mxCell>
        <mxCell id="al1mT7tdYFEabx9WJTDM-49" value="" style="edgeStyle=orthogonalEdgeStyle;rounded=0;orthogonalLoop=1;jettySize=auto;html=1;" parent="1" source="al1mT7tdYFEabx9WJTDM-46" target="al1mT7tdYFEabx9WJTDM-48" edge="1">
          <mxGeometry relative="1" as="geometry" />
        </mxCell>
        <mxCell id="al1mT7tdYFEabx9WJTDM-46" value="void show()" style="shape=process;whiteSpace=wrap;html=1;backgroundOutline=1;" parent="1" vertex="1">
          <mxGeometry x="1840" y="120" width="120" height="40" as="geometry" />
        </mxCell>
        <mxCell id="al1mT7tdYFEabx9WJTDM-52" value="" style="edgeStyle=orthogonalEdgeStyle;rounded=0;orthogonalLoop=1;jettySize=auto;html=1;" parent="1" source="al1mT7tdYFEabx9WJTDM-48" target="al1mT7tdYFEabx9WJTDM-51" edge="1">
          <mxGeometry relative="1" as="geometry" />
        </mxCell>
        <mxCell id="al1mT7tdYFEabx9WJTDM-48" value="cout &amp;lt;&amp;lt; &quot;Стек: &quot;;" style="shape=parallelogram;perimeter=parallelogramPerimeter;whiteSpace=wrap;html=1;fixedSize=1;" parent="1" vertex="1">
          <mxGeometry x="1830" y="200" width="140" height="40" as="geometry" />
        </mxCell>
        <mxCell id="al1mT7tdYFEabx9WJTDM-50" value="{" style="text;html=1;align=center;verticalAlign=middle;resizable=0;points=[];autosize=1;strokeColor=none;fillColor=none;" parent="1" vertex="1">
          <mxGeometry x="1870" y="158" width="30" height="30" as="geometry" />
        </mxCell>
        <mxCell id="al1mT7tdYFEabx9WJTDM-54" value="" style="edgeStyle=orthogonalEdgeStyle;rounded=0;orthogonalLoop=1;jettySize=auto;html=1;" parent="1" source="al1mT7tdYFEabx9WJTDM-51" target="al1mT7tdYFEabx9WJTDM-53" edge="1">
          <mxGeometry relative="1" as="geometry" />
        </mxCell>
        <mxCell id="al1mT7tdYFEabx9WJTDM-58" value="" style="edgeStyle=orthogonalEdgeStyle;rounded=0;orthogonalLoop=1;jettySize=auto;html=1;" parent="1" source="al1mT7tdYFEabx9WJTDM-51" target="al1mT7tdYFEabx9WJTDM-57" edge="1">
          <mxGeometry relative="1" as="geometry" />
        </mxCell>
        <mxCell id="al1mT7tdYFEabx9WJTDM-51" value="for (Node* node = head; node != nullptr; node = node-&amp;gt;next_ptr)" style="shape=hexagon;perimeter=hexagonPerimeter2;whiteSpace=wrap;html=1;fixedSize=1;" parent="1" vertex="1">
          <mxGeometry x="1720" y="260" width="360" height="40" as="geometry" />
        </mxCell>
        <mxCell id="al1mT7tdYFEabx9WJTDM-56" style="edgeStyle=orthogonalEdgeStyle;rounded=0;orthogonalLoop=1;jettySize=auto;html=1;entryX=0;entryY=0.5;entryDx=0;entryDy=0;" parent="1" source="al1mT7tdYFEabx9WJTDM-53" target="al1mT7tdYFEabx9WJTDM-51" edge="1">
          <mxGeometry relative="1" as="geometry">
            <Array as="points">
              <mxPoint x="1900" y="400" />
              <mxPoint x="1700" y="400" />
              <mxPoint x="1700" y="280" />
            </Array>
          </mxGeometry>
        </mxCell>
        <mxCell id="al1mT7tdYFEabx9WJTDM-53" value="cout &amp;lt;&amp;lt; node-&amp;gt;data &amp;lt;&amp;lt; &#39; &#39;;" style="shape=parallelogram;perimeter=parallelogramPerimeter;whiteSpace=wrap;html=1;fixedSize=1;" parent="1" vertex="1">
          <mxGeometry x="1810" y="340" width="180" height="40" as="geometry" />
        </mxCell>
        <mxCell id="al1mT7tdYFEabx9WJTDM-55" value="1" style="text;html=1;align=center;verticalAlign=middle;resizable=0;points=[];autosize=1;strokeColor=none;fillColor=none;" parent="1" vertex="1">
          <mxGeometry x="1900" y="310" width="30" height="30" as="geometry" />
        </mxCell>
        <mxCell id="al1mT7tdYFEabx9WJTDM-61" style="edgeStyle=orthogonalEdgeStyle;rounded=0;orthogonalLoop=1;jettySize=auto;html=1;entryX=0.5;entryY=0;entryDx=0;entryDy=0;" parent="1" source="al1mT7tdYFEabx9WJTDM-57" target="al1mT7tdYFEabx9WJTDM-60" edge="1">
          <mxGeometry relative="1" as="geometry" />
        </mxCell>
        <mxCell id="al1mT7tdYFEabx9WJTDM-57" value="cout &amp;lt;&amp;lt; endl;" style="shape=parallelogram;perimeter=parallelogramPerimeter;whiteSpace=wrap;html=1;fixedSize=1;" parent="1" vertex="1">
          <mxGeometry x="2140" y="320" width="120" height="40" as="geometry" />
        </mxCell>
        <mxCell id="al1mT7tdYFEabx9WJTDM-59" value="0" style="text;html=1;align=center;verticalAlign=middle;resizable=0;points=[];autosize=1;strokeColor=none;fillColor=none;" parent="1" vertex="1">
          <mxGeometry x="2175" y="250" width="30" height="30" as="geometry" />
        </mxCell>
        <mxCell id="al1mT7tdYFEabx9WJTDM-60" value="return;" style="ellipse;whiteSpace=wrap;html=1;" parent="1" vertex="1">
          <mxGeometry x="2140" y="380" width="120" height="40" as="geometry" />
        </mxCell>
        <mxCell id="al1mT7tdYFEabx9WJTDM-62" value="}" style="text;html=1;align=center;verticalAlign=middle;resizable=0;points=[];autosize=1;strokeColor=none;fillColor=none;" parent="1" vertex="1">
          <mxGeometry x="2195" y="418" width="30" height="30" as="geometry" />
        </mxCell>
        <mxCell id="al1mT7tdYFEabx9WJTDM-63" value="};" style="text;html=1;align=center;verticalAlign=middle;resizable=0;points=[];autosize=1;strokeColor=none;fillColor=none;" parent="1" vertex="1">
          <mxGeometry x="2185" y="440" width="30" height="30" as="geometry" />
        </mxCell>
        <mxCell id="XAl1nLHY8Ddc96a0wSS3-1" value="" style="edgeStyle=orthogonalEdgeStyle;rounded=0;orthogonalLoop=1;jettySize=auto;html=1;" edge="1" parent="1" source="XAl1nLHY8Ddc96a0wSS3-2" target="XAl1nLHY8Ddc96a0wSS3-4">
          <mxGeometry relative="1" as="geometry" />
        </mxCell>
        <mxCell id="XAl1nLHY8Ddc96a0wSS3-2" value="struct Stack" style="shape=process;whiteSpace=wrap;html=1;backgroundOutline=1;fillColor=#f5f5f5;fontColor=#333333;strokeColor=#666666;" vertex="1" parent="1">
          <mxGeometry x="40" y="60" width="120" height="40" as="geometry" />
        </mxCell>
        <mxCell id="XAl1nLHY8Ddc96a0wSS3-3" value="" style="edgeStyle=orthogonalEdgeStyle;rounded=0;orthogonalLoop=1;jettySize=auto;html=1;" edge="1" parent="1" source="XAl1nLHY8Ddc96a0wSS3-4" target="XAl1nLHY8Ddc96a0wSS3-6">
          <mxGeometry relative="1" as="geometry" />
        </mxCell>
        <mxCell id="XAl1nLHY8Ddc96a0wSS3-4" value="Node* head = nullptr;" style="whiteSpace=wrap;html=1;" vertex="1" parent="1">
          <mxGeometry x="40" y="140" width="120" height="40" as="geometry" />
        </mxCell>
        <mxCell id="XAl1nLHY8Ddc96a0wSS3-5" value="" style="edgeStyle=orthogonalEdgeStyle;rounded=0;orthogonalLoop=1;jettySize=auto;html=1;" edge="1" parent="1" source="XAl1nLHY8Ddc96a0wSS3-6">
          <mxGeometry relative="1" as="geometry">
            <mxPoint x="100" y="260" as="targetPoint" />
          </mxGeometry>
        </mxCell>
        <mxCell id="XAl1nLHY8Ddc96a0wSS3-6" value="int size = 0;" style="whiteSpace=wrap;html=1;" vertex="1" parent="1">
          <mxGeometry x="40" y="200" width="120" height="40" as="geometry" />
        </mxCell>
        <mxCell id="XAl1nLHY8Ddc96a0wSS3-7" value="a" style="ellipse;whiteSpace=wrap;html=1;" vertex="1" parent="1">
          <mxGeometry x="80" y="260" width="40" height="37" as="geometry" />
        </mxCell>
        <mxCell id="XAl1nLHY8Ddc96a0wSS3-8" style="edgeStyle=orthogonalEdgeStyle;rounded=0;orthogonalLoop=1;jettySize=auto;html=1;" edge="1" parent="1" source="XAl1nLHY8Ddc96a0wSS3-9">
          <mxGeometry relative="1" as="geometry">
            <mxPoint x="400" y="120" as="targetPoint" />
          </mxGeometry>
        </mxCell>
        <mxCell id="XAl1nLHY8Ddc96a0wSS3-9" value="a" style="ellipse;whiteSpace=wrap;html=1;" vertex="1" parent="1">
          <mxGeometry x="380" y="60" width="40" height="37" as="geometry" />
        </mxCell>
      </root>
    </mxGraphModel>
  </diagram>
</mxfile>
